<?xml version="1.0" encoding="utf-8"?>
<!-- Generator: Adobe Illustrator 27.0.0, SVG Export Plug-In . SVG Version: 6.00 Build 0)  -->
<svg version="1.1" id="Layer_1" xmlns="http://www.w3.org/2000/svg" xmlns:xlink="http://www.w3.org/1999/xlink" x="0px" y="0px"
	 viewBox="0 0 1000 800" style="enable-background:new 0 0 1000 800;" xml:space="preserve">
<style type="text/css">
	.st0{fill:#F3F4F5;}
	.st1{fill:#6237A0;}
	.st2{fill:#7949AA;}
	.st3{fill:#9863C6;}
	.st4{fill:#5C2E90;}
	.st5{fill:#E6DCF7;}
	.st6{fill:url(#SVGID_1_);}
	.st7{fill:#FFFFFF;fill-opacity:0.102;}
	.st8{fill:url(#SVGID_00000051370384894628025330000004141879243399815058_);fill-opacity:0.5;}
	.st9{fill:url(#SVGID_00000111162046602657582370000017616613293170376604_);}
	.st10{fill:url(#SVGID_00000169533760953390417030000003312814595576750734_);fill-opacity:0.502;}
	.st11{fill:url(#SVGID_00000032633665615754262180000002933488834607117995_);fill-opacity:0.502;}
	.st12{fill:url(#SVGID_00000114785773122481351380000017106866541466044563_);}
	.st13{fill:url(#SVGID_00000016059339231698569520000003102028985152927648_);fill-opacity:0.102;}
	.st14{fill:url(#SVGID_00000087383103045097444660000013760354448742712970_);fill-opacity:0.502;}
	.st15{fill:#FFFFFF;}
	.st16{fill:url(#SVGID_00000110454831577613626660000014963753137679865994_);}
	.st17{fill:url(#SVGID_00000073709881732095022530000015265519759427234201_);fill-opacity:0.5;}
	.st18{fill:url(#SVGID_00000015348892068266612530000008149412310312442766_);}
	.st19{fill:url(#SVGID_00000083780269038953050660000002460054922384689844_);fill-opacity:0.502;}
	.st20{fill:url(#SVGID_00000072992384019012239120000010758186430216652987_);fill-opacity:0.502;}
	.st21{fill:url(#SVGID_00000009554737953610018330000009966023343389486481_);}
	.st22{fill:url(#SVGID_00000077297032708640557010000001593111868093490842_);fill-opacity:0.102;}
	.st23{fill:url(#SVGID_00000073692413339838715500000014104219145705805712_);fill-opacity:0.502;}
	.st24{fill:#FF7900;}
	.st25{font-family:'Baloo2-Medium';}
	.st26{font-size:220px;}
</style>
<g id="XMLID_00000156545535896472628210000017229083062010652811_">
	<g id="XMLID_00000042011272091922821870000010873851523792751527_">
		<path id="XMLID_00000147198642860420815680000000910616076301911187_" class="st1" d="M337.98,165.3l-1.55-1.11
			c-17.34,25.51-27.47,56.31-27.47,89.48c0,7.81,0.56,15.49,1.65,23c9.04-2.47,18.54-3.79,28.36-3.79
			c59.35,0,107.46,48.11,107.46,107.46c0,10.62-1.55,20.88-4.42,30.57c8.57,1.43,17.37,2.17,26.35,2.17c31.27,0,60.43-9,85.04-24.56
			C553.41,388.5,528.54,192.84,337.98,165.3z"/>
		<path id="XMLID_00000150097988446310480760000016725867031941764501_" class="st2" d="M408.09,106.05
			c-29.24,11.95-54.13,32.34-71.66,58.13l1.55,1.11C528.54,192.84,553.41,388.5,553.41,388.5c42.12,38.38,74.36,85.76,74.36,85.76
			V316.28C585.07,165.42,408.09,106.06,408.09,106.05z"/>
		<path id="XMLID_00000122697850478244446540000000708374143735074194_" class="st3" d="M468.36,94.26
			c-21.33,0-41.68,4.19-60.28,11.79c0,0,176.98,59.37,219.68,210.23v-62.62C627.76,165.63,556.4,94.26,468.36,94.26z"/>
		<path id="XMLID_00000131357304641761246160000005906357205929502644_" class="st4" d="M338.97,272.87
			c-9.82,0-19.32,1.32-28.36,3.79c9.9,68.51,63.36,122.92,131.4,134.24c2.87-9.69,4.42-19.95,4.42-30.57
			C446.43,320.98,398.32,272.87,338.97,272.87z"/>
	</g>
</g>
<g>
	<text transform="matrix(1 0 0 1 119.6255 674.2998)" class="st1 st25 st26">servana</text>
</g>
</svg>
